<mxfile host="app.diagrams.net" modified="2023-06-05T19:40:46.837Z" agent="Mozilla/5.0 (Macintosh; Intel Mac OS X 10_15_7) AppleWebKit/537.36 (KHTML, like Gecko) Chrome/113.0.0.0 Safari/537.36" etag="041dW5JqAspoKw-w4U3h" version="21.3.5" type="github">
  <diagram name="페이지-1" id="l1ZelUvGsrJ0tQSKEeoT">
    <mxGraphModel dx="1875" dy="770" grid="1" gridSize="10" guides="1" tooltips="1" connect="1" arrows="1" fold="1" page="1" pageScale="1" pageWidth="827" pageHeight="1169" math="0" shadow="0">
      <root>
        <mxCell id="0" />
        <mxCell id="1" parent="0" />
        <mxCell id="L7Nu4bsqdqQI_wppX1Jp-54" style="edgeStyle=orthogonalEdgeStyle;rounded=0;orthogonalLoop=1;jettySize=auto;html=1;exitX=1;exitY=0.75;exitDx=0;exitDy=0;entryX=0;entryY=0.25;entryDx=0;entryDy=0;" parent="1" source="L7Nu4bsqdqQI_wppX1Jp-157" target="L7Nu4bsqdqQI_wppX1Jp-53" edge="1">
          <mxGeometry relative="1" as="geometry" />
        </mxCell>
        <mxCell id="L7Nu4bsqdqQI_wppX1Jp-78" style="edgeStyle=orthogonalEdgeStyle;rounded=0;orthogonalLoop=1;jettySize=auto;html=1;entryX=0;entryY=0.5;entryDx=0;entryDy=0;exitX=0.5;exitY=1;exitDx=0;exitDy=0;strokeColor=#CC0000;" parent="1" source="L7Nu4bsqdqQI_wppX1Jp-160" target="L7Nu4bsqdqQI_wppX1Jp-82" edge="1">
          <mxGeometry relative="1" as="geometry" />
        </mxCell>
        <mxCell id="L7Nu4bsqdqQI_wppX1Jp-161" style="edgeStyle=orthogonalEdgeStyle;rounded=0;orthogonalLoop=1;jettySize=auto;html=1;exitX=0.5;exitY=1;exitDx=0;exitDy=0;entryX=0.499;entryY=0.231;entryDx=0;entryDy=0;entryPerimeter=0;strokeColor=#CC0000;" parent="1" source="L7Nu4bsqdqQI_wppX1Jp-50" target="L7Nu4bsqdqQI_wppX1Jp-160" edge="1">
          <mxGeometry relative="1" as="geometry" />
        </mxCell>
        <mxCell id="L7Nu4bsqdqQI_wppX1Jp-50" value="WebSocket" style="ellipse;whiteSpace=wrap;html=1;" parent="1" vertex="1">
          <mxGeometry x="215" y="550" width="90" height="50" as="geometry" />
        </mxCell>
        <mxCell id="L7Nu4bsqdqQI_wppX1Jp-55" style="edgeStyle=orthogonalEdgeStyle;rounded=0;orthogonalLoop=1;jettySize=auto;html=1;exitX=1;exitY=0.25;exitDx=0;exitDy=0;entryX=0.033;entryY=0.256;entryDx=0;entryDy=0;entryPerimeter=0;" parent="1" source="L7Nu4bsqdqQI_wppX1Jp-53" target="L7Nu4bsqdqQI_wppX1Jp-52" edge="1">
          <mxGeometry relative="1" as="geometry" />
        </mxCell>
        <mxCell id="L7Nu4bsqdqQI_wppX1Jp-57" style="edgeStyle=orthogonalEdgeStyle;rounded=0;orthogonalLoop=1;jettySize=auto;html=1;exitX=0;exitY=0.5;exitDx=0;exitDy=0;entryX=1;entryY=0.5;entryDx=0;entryDy=0;entryPerimeter=0;strokeColor=#CCCC00;" parent="1" source="L7Nu4bsqdqQI_wppX1Jp-53" target="L7Nu4bsqdqQI_wppX1Jp-58" edge="1">
          <mxGeometry relative="1" as="geometry">
            <mxPoint x="350" y="360" as="targetPoint" />
            <Array as="points">
              <mxPoint x="370" y="360" />
              <mxPoint x="370" y="410" />
            </Array>
          </mxGeometry>
        </mxCell>
        <mxCell id="L7Nu4bsqdqQI_wppX1Jp-107" style="edgeStyle=orthogonalEdgeStyle;rounded=0;orthogonalLoop=1;jettySize=auto;html=1;exitX=0.5;exitY=1;exitDx=0;exitDy=0;shape=link;entryX=0.5;entryY=0;entryDx=0;entryDy=0;width=120;" parent="1" source="L7Nu4bsqdqQI_wppX1Jp-53" target="L7Nu4bsqdqQI_wppX1Jp-103" edge="1">
          <mxGeometry relative="1" as="geometry">
            <mxPoint x="460" y="510" as="targetPoint" />
            <Array as="points">
              <mxPoint x="460" y="490" />
              <mxPoint x="460" y="490" />
            </Array>
          </mxGeometry>
        </mxCell>
        <mxCell id="L7Nu4bsqdqQI_wppX1Jp-53" value="FastAPI&lt;br&gt;(REST API)" style="rounded=0;whiteSpace=wrap;html=1;" parent="1" vertex="1">
          <mxGeometry x="400" y="330" width="120" height="60" as="geometry" />
        </mxCell>
        <mxCell id="L7Nu4bsqdqQI_wppX1Jp-59" value="" style="edgeStyle=orthogonalEdgeStyle;rounded=0;orthogonalLoop=1;jettySize=auto;html=1;strokeColor=#CC0000;" parent="1" source="L7Nu4bsqdqQI_wppX1Jp-58" target="L7Nu4bsqdqQI_wppX1Jp-50" edge="1">
          <mxGeometry relative="1" as="geometry" />
        </mxCell>
        <mxCell id="L7Nu4bsqdqQI_wppX1Jp-60" value="" style="edgeStyle=orthogonalEdgeStyle;rounded=0;orthogonalLoop=1;jettySize=auto;html=1;entryX=1;entryY=0.5;entryDx=0;entryDy=0;strokeColor=#009900;" parent="1" source="L7Nu4bsqdqQI_wppX1Jp-58" target="L7Nu4bsqdqQI_wppX1Jp-144" edge="1">
          <mxGeometry relative="1" as="geometry">
            <Array as="points">
              <mxPoint x="200" y="410" />
              <mxPoint x="200" y="460" />
            </Array>
          </mxGeometry>
        </mxCell>
        <mxCell id="L7Nu4bsqdqQI_wppX1Jp-58" value="Http Status&lt;br&gt;Code" style="strokeWidth=2;html=1;shape=mxgraph.flowchart.decision;whiteSpace=wrap;" parent="1" vertex="1">
          <mxGeometry x="210" y="380" width="100" height="60" as="geometry" />
        </mxCell>
        <mxCell id="L7Nu4bsqdqQI_wppX1Jp-77" value="Websocket Scraper Container" style="swimlane;" parent="1" vertex="1">
          <mxGeometry x="360" y="650" width="420" height="250" as="geometry" />
        </mxCell>
        <mxCell id="L7Nu4bsqdqQI_wppX1Jp-88" style="edgeStyle=orthogonalEdgeStyle;rounded=0;orthogonalLoop=1;jettySize=auto;html=1;exitX=1;exitY=0.5;exitDx=0;exitDy=0;entryX=0.5;entryY=0;entryDx=0;entryDy=0;" parent="L7Nu4bsqdqQI_wppX1Jp-77" source="L7Nu4bsqdqQI_wppX1Jp-82" target="L7Nu4bsqdqQI_wppX1Jp-83" edge="1">
          <mxGeometry relative="1" as="geometry" />
        </mxCell>
        <mxCell id="L7Nu4bsqdqQI_wppX1Jp-89" style="edgeStyle=orthogonalEdgeStyle;rounded=0;orthogonalLoop=1;jettySize=auto;html=1;exitX=1;exitY=0.5;exitDx=0;exitDy=0;entryX=0.5;entryY=0;entryDx=0;entryDy=0;" parent="L7Nu4bsqdqQI_wppX1Jp-77" source="L7Nu4bsqdqQI_wppX1Jp-82" target="L7Nu4bsqdqQI_wppX1Jp-85" edge="1">
          <mxGeometry relative="1" as="geometry" />
        </mxCell>
        <mxCell id="L7Nu4bsqdqQI_wppX1Jp-82" value="WebSocket&lt;br&gt;Listener" style="rounded=1;whiteSpace=wrap;html=1;absoluteArcSize=1;arcSize=14;strokeWidth=2;" parent="L7Nu4bsqdqQI_wppX1Jp-77" vertex="1">
          <mxGeometry x="20" y="40" width="70" height="55" as="geometry" />
        </mxCell>
        <mxCell id="L7Nu4bsqdqQI_wppX1Jp-87" value="Scraper Process" style="swimlane;" parent="L7Nu4bsqdqQI_wppX1Jp-77" vertex="1">
          <mxGeometry x="110" y="80" width="160" height="160" as="geometry" />
        </mxCell>
        <mxCell id="L7Nu4bsqdqQI_wppX1Jp-85" value="Process" style="swimlane;" parent="L7Nu4bsqdqQI_wppX1Jp-87" vertex="1">
          <mxGeometry x="70" y="40" width="50" height="100" as="geometry">
            <mxRectangle x="70" y="40" width="90" height="30" as="alternateBounds" />
          </mxGeometry>
        </mxCell>
        <mxCell id="L7Nu4bsqdqQI_wppX1Jp-83" value="process" style="swimlane;" parent="L7Nu4bsqdqQI_wppX1Jp-87" vertex="1">
          <mxGeometry x="10" y="40" width="50" height="100" as="geometry" />
        </mxCell>
        <mxCell id="L7Nu4bsqdqQI_wppX1Jp-90" value="" style="endArrow=none;dashed=1;html=1;dashPattern=1 3;strokeWidth=2;rounded=0;" parent="L7Nu4bsqdqQI_wppX1Jp-87" edge="1">
          <mxGeometry width="50" height="50" relative="1" as="geometry">
            <mxPoint x="130" y="89.8" as="sourcePoint" />
            <mxPoint x="160" y="89.8" as="targetPoint" />
          </mxGeometry>
        </mxCell>
        <mxCell id="L7Nu4bsqdqQI_wppX1Jp-94" value="Scrape&lt;br&gt;Data" style="shape=parallelogram;html=1;strokeWidth=2;perimeter=parallelogramPerimeter;whiteSpace=wrap;rounded=1;arcSize=12;size=0.23;" parent="L7Nu4bsqdqQI_wppX1Jp-77" vertex="1">
          <mxGeometry x="310" y="145" width="80" height="50" as="geometry" />
        </mxCell>
        <mxCell id="L7Nu4bsqdqQI_wppX1Jp-96" style="edgeStyle=orthogonalEdgeStyle;rounded=0;orthogonalLoop=1;jettySize=auto;html=1;exitX=0.5;exitY=1;exitDx=0;exitDy=0;entryX=0.5;entryY=1;entryDx=0;entryDy=0;" parent="L7Nu4bsqdqQI_wppX1Jp-77" source="L7Nu4bsqdqQI_wppX1Jp-85" target="L7Nu4bsqdqQI_wppX1Jp-94" edge="1">
          <mxGeometry relative="1" as="geometry">
            <Array as="points">
              <mxPoint x="175" y="230" />
              <mxPoint x="320" y="230" />
            </Array>
          </mxGeometry>
        </mxCell>
        <mxCell id="L7Nu4bsqdqQI_wppX1Jp-97" style="edgeStyle=orthogonalEdgeStyle;rounded=0;orthogonalLoop=1;jettySize=auto;html=1;exitX=0.5;exitY=1;exitDx=0;exitDy=0;entryX=0.5;entryY=1;entryDx=0;entryDy=0;" parent="L7Nu4bsqdqQI_wppX1Jp-77" source="L7Nu4bsqdqQI_wppX1Jp-83" target="L7Nu4bsqdqQI_wppX1Jp-94" edge="1">
          <mxGeometry relative="1" as="geometry">
            <Array as="points">
              <mxPoint x="145" y="230" />
              <mxPoint x="350" y="230" />
            </Array>
          </mxGeometry>
        </mxCell>
        <mxCell id="L7Nu4bsqdqQI_wppX1Jp-95" value="Convert&lt;br&gt;JSON" style="rounded=1;whiteSpace=wrap;html=1;absoluteArcSize=1;arcSize=14;strokeWidth=2;" parent="L7Nu4bsqdqQI_wppX1Jp-77" vertex="1">
          <mxGeometry x="310" y="50" width="80" height="55" as="geometry" />
        </mxCell>
        <mxCell id="L7Nu4bsqdqQI_wppX1Jp-98" style="edgeStyle=orthogonalEdgeStyle;rounded=0;orthogonalLoop=1;jettySize=auto;html=1;exitX=0.5;exitY=0;exitDx=0;exitDy=0;" parent="L7Nu4bsqdqQI_wppX1Jp-77" source="L7Nu4bsqdqQI_wppX1Jp-94" target="L7Nu4bsqdqQI_wppX1Jp-95" edge="1">
          <mxGeometry relative="1" as="geometry" />
        </mxCell>
        <mxCell id="L7Nu4bsqdqQI_wppX1Jp-105" value="" style="edgeStyle=orthogonalEdgeStyle;rounded=0;orthogonalLoop=1;jettySize=auto;html=1;exitX=1;exitY=0.5;exitDx=0;exitDy=0;" parent="1" source="L7Nu4bsqdqQI_wppX1Jp-95" target="L7Nu4bsqdqQI_wppX1Jp-103" edge="1">
          <mxGeometry relative="1" as="geometry">
            <Array as="points">
              <mxPoint x="810" y="727" />
              <mxPoint x="810" y="630" />
              <mxPoint x="460" y="630" />
            </Array>
          </mxGeometry>
        </mxCell>
        <mxCell id="L7Nu4bsqdqQI_wppX1Jp-108" style="edgeStyle=orthogonalEdgeStyle;rounded=0;orthogonalLoop=1;jettySize=auto;html=1;exitX=1;exitY=0.5;exitDx=0;exitDy=0;" parent="1" source="L7Nu4bsqdqQI_wppX1Jp-103" target="L7Nu4bsqdqQI_wppX1Jp-52" edge="1">
          <mxGeometry relative="1" as="geometry" />
        </mxCell>
        <mxCell id="L7Nu4bsqdqQI_wppX1Jp-103" value="FastAPI&lt;br&gt;(REST API)" style="rounded=0;whiteSpace=wrap;html=1;" parent="1" vertex="1">
          <mxGeometry x="400" y="520" width="120" height="60" as="geometry" />
        </mxCell>
        <mxCell id="L7Nu4bsqdqQI_wppX1Jp-109" value="BackEnd (Docker)" style="swimlane;" parent="1" vertex="1">
          <mxGeometry x="590" y="290" width="190" height="180" as="geometry" />
        </mxCell>
        <mxCell id="L7Nu4bsqdqQI_wppX1Jp-52" value="&lt;br&gt;Redis&lt;br&gt;DB" style="strokeWidth=2;html=1;shape=mxgraph.flowchart.database;whiteSpace=wrap;" parent="L7Nu4bsqdqQI_wppX1Jp-109" vertex="1">
          <mxGeometry x="110" y="40" width="60" height="60" as="geometry" />
        </mxCell>
        <mxCell id="L7Nu4bsqdqQI_wppX1Jp-116" value="GET Request" style="text;html=1;strokeColor=none;fillColor=none;align=center;verticalAlign=middle;whiteSpace=wrap;rounded=0;" parent="L7Nu4bsqdqQI_wppX1Jp-109" vertex="1">
          <mxGeometry x="5" y="30" width="90" height="30" as="geometry" />
        </mxCell>
        <mxCell id="L7Nu4bsqdqQI_wppX1Jp-162" value="GET Response" style="text;html=1;strokeColor=none;fillColor=none;align=center;verticalAlign=middle;whiteSpace=wrap;rounded=0;" parent="L7Nu4bsqdqQI_wppX1Jp-109" vertex="1">
          <mxGeometry x="7" y="63" width="90" height="30" as="geometry" />
        </mxCell>
        <mxCell id="L7Nu4bsqdqQI_wppX1Jp-110" value="MiddleWare" style="swimlane;" parent="1" vertex="1">
          <mxGeometry x="360" y="290" width="200" height="310" as="geometry" />
        </mxCell>
        <mxCell id="L7Nu4bsqdqQI_wppX1Jp-163" value="Http Status Code&lt;br&gt;JSON : 200&lt;br&gt;Null : 404" style="text;html=1;strokeColor=none;fillColor=none;align=center;verticalAlign=middle;whiteSpace=wrap;rounded=0;" parent="L7Nu4bsqdqQI_wppX1Jp-110" vertex="1">
          <mxGeometry x="40" y="120" width="120" height="90" as="geometry" />
        </mxCell>
        <mxCell id="L7Nu4bsqdqQI_wppX1Jp-111" value="200" style="text;html=1;strokeColor=none;fillColor=none;align=center;verticalAlign=middle;whiteSpace=wrap;rounded=0;" parent="1" vertex="1">
          <mxGeometry x="180" y="390" width="40" height="20" as="geometry" />
        </mxCell>
        <mxCell id="L7Nu4bsqdqQI_wppX1Jp-112" value="404" style="text;html=1;strokeColor=none;fillColor=none;align=center;verticalAlign=middle;whiteSpace=wrap;rounded=0;" parent="1" vertex="1">
          <mxGeometry x="254" y="440" width="40" height="20" as="geometry" />
        </mxCell>
        <mxCell id="L7Nu4bsqdqQI_wppX1Jp-120" value="JSON&lt;br&gt;Data" style="text;html=1;strokeColor=none;fillColor=none;align=center;verticalAlign=middle;whiteSpace=wrap;rounded=0;" parent="1" vertex="1">
          <mxGeometry x="160" y="460" width="60" height="30" as="geometry" />
        </mxCell>
        <mxCell id="L7Nu4bsqdqQI_wppX1Jp-123" value="" style="edgeStyle=orthogonalEdgeStyle;rounded=0;orthogonalLoop=1;jettySize=auto;html=1;" parent="1" source="L7Nu4bsqdqQI_wppX1Jp-52" target="L7Nu4bsqdqQI_wppX1Jp-122" edge="1">
          <mxGeometry relative="1" as="geometry">
            <Array as="points">
              <mxPoint x="810" y="360" />
              <mxPoint x="810" y="390" />
            </Array>
          </mxGeometry>
        </mxCell>
        <mxCell id="L7Nu4bsqdqQI_wppX1Jp-128" style="edgeStyle=orthogonalEdgeStyle;rounded=0;orthogonalLoop=1;jettySize=auto;html=1;exitX=0;exitY=0.5;exitDx=0;exitDy=0;exitPerimeter=0;strokeColor=#CCCC00;" parent="1" source="L7Nu4bsqdqQI_wppX1Jp-52" target="L7Nu4bsqdqQI_wppX1Jp-53" edge="1">
          <mxGeometry relative="1" as="geometry" />
        </mxCell>
        <mxCell id="L7Nu4bsqdqQI_wppX1Jp-138" style="edgeStyle=orthogonalEdgeStyle;rounded=0;orthogonalLoop=1;jettySize=auto;html=1;exitX=0;exitY=0.5;exitDx=0;exitDy=0;entryX=1;entryY=0.85;entryDx=0;entryDy=0;entryPerimeter=0;strokeColor=#CC0000;" parent="1" source="L7Nu4bsqdqQI_wppX1Jp-136" target="L7Nu4bsqdqQI_wppX1Jp-52" edge="1">
          <mxGeometry relative="1" as="geometry">
            <Array as="points">
              <mxPoint x="790" y="435" />
              <mxPoint x="790" y="381" />
            </Array>
          </mxGeometry>
        </mxCell>
        <mxCell id="L7Nu4bsqdqQI_wppX1Jp-141" style="edgeStyle=orthogonalEdgeStyle;rounded=0;orthogonalLoop=1;jettySize=auto;html=1;exitX=0;exitY=0.5;exitDx=0;exitDy=0;entryX=1;entryY=0.15;entryDx=0;entryDy=0;entryPerimeter=0;strokeColor=#009900;" parent="1" source="L7Nu4bsqdqQI_wppX1Jp-139" target="L7Nu4bsqdqQI_wppX1Jp-52" edge="1">
          <mxGeometry relative="1" as="geometry">
            <Array as="points">
              <mxPoint x="790" y="345" />
              <mxPoint x="790" y="339" />
            </Array>
          </mxGeometry>
        </mxCell>
        <mxCell id="L7Nu4bsqdqQI_wppX1Jp-142" value="Redis DataBase" style="swimlane;" parent="1" vertex="1">
          <mxGeometry x="800" y="290" width="200" height="180" as="geometry" />
        </mxCell>
        <mxCell id="L7Nu4bsqdqQI_wppX1Jp-122" value="Data&lt;br&gt;Validation" style="strokeWidth=2;html=1;shape=mxgraph.flowchart.decision;whiteSpace=wrap;" parent="L7Nu4bsqdqQI_wppX1Jp-142" vertex="1">
          <mxGeometry x="113" y="65" width="80" height="70" as="geometry" />
        </mxCell>
        <mxCell id="L7Nu4bsqdqQI_wppX1Jp-129" value="YES" style="text;html=1;strokeColor=none;fillColor=none;align=center;verticalAlign=middle;whiteSpace=wrap;rounded=0;" parent="L7Nu4bsqdqQI_wppX1Jp-142" vertex="1">
          <mxGeometry x="113" y="30" width="60" height="30" as="geometry" />
        </mxCell>
        <mxCell id="L7Nu4bsqdqQI_wppX1Jp-132" value="NO" style="text;html=1;strokeColor=none;fillColor=none;align=center;verticalAlign=middle;whiteSpace=wrap;rounded=0;" parent="L7Nu4bsqdqQI_wppX1Jp-142" vertex="1">
          <mxGeometry x="113" y="140" width="60" height="30" as="geometry" />
        </mxCell>
        <mxCell id="L7Nu4bsqdqQI_wppX1Jp-136" value="&lt;font size=&quot;1&quot;&gt;Null&lt;br&gt;&lt;/font&gt;" style="ellipse;whiteSpace=wrap;html=1;" parent="L7Nu4bsqdqQI_wppX1Jp-142" vertex="1">
          <mxGeometry x="10" y="120" width="63" height="50" as="geometry" />
        </mxCell>
        <mxCell id="L7Nu4bsqdqQI_wppX1Jp-137" style="edgeStyle=orthogonalEdgeStyle;rounded=0;orthogonalLoop=1;jettySize=auto;html=1;exitX=0.5;exitY=1;exitDx=0;exitDy=0;exitPerimeter=0;entryX=1;entryY=0.5;entryDx=0;entryDy=0;strokeColor=#CC0000;" parent="L7Nu4bsqdqQI_wppX1Jp-142" source="L7Nu4bsqdqQI_wppX1Jp-122" target="L7Nu4bsqdqQI_wppX1Jp-136" edge="1">
          <mxGeometry relative="1" as="geometry">
            <Array as="points">
              <mxPoint x="153" y="145" />
            </Array>
          </mxGeometry>
        </mxCell>
        <mxCell id="L7Nu4bsqdqQI_wppX1Jp-139" value="&lt;font size=&quot;1&quot;&gt;JSON Data&lt;br&gt;&lt;/font&gt;" style="ellipse;whiteSpace=wrap;html=1;" parent="L7Nu4bsqdqQI_wppX1Jp-142" vertex="1">
          <mxGeometry x="10" y="30" width="63" height="50" as="geometry" />
        </mxCell>
        <mxCell id="L7Nu4bsqdqQI_wppX1Jp-140" style="edgeStyle=orthogonalEdgeStyle;rounded=0;orthogonalLoop=1;jettySize=auto;html=1;exitX=0.5;exitY=0;exitDx=0;exitDy=0;exitPerimeter=0;entryX=1;entryY=0.5;entryDx=0;entryDy=0;strokeColor=#009900;" parent="L7Nu4bsqdqQI_wppX1Jp-142" source="L7Nu4bsqdqQI_wppX1Jp-122" target="L7Nu4bsqdqQI_wppX1Jp-139" edge="1">
          <mxGeometry relative="1" as="geometry">
            <Array as="points">
              <mxPoint x="153" y="55" />
            </Array>
          </mxGeometry>
        </mxCell>
        <mxCell id="L7Nu4bsqdqQI_wppX1Jp-152" value="FT.Search" style="text;html=1;strokeColor=none;fillColor=none;align=center;verticalAlign=middle;whiteSpace=wrap;rounded=0;fontSize=10;" parent="L7Nu4bsqdqQI_wppX1Jp-142" vertex="1">
          <mxGeometry y="80" width="110" height="30" as="geometry" />
        </mxCell>
        <mxCell id="L7Nu4bsqdqQI_wppX1Jp-149" value="" style="edgeStyle=orthogonalEdgeStyle;rounded=0;orthogonalLoop=1;jettySize=auto;html=1;" parent="1" source="L7Nu4bsqdqQI_wppX1Jp-144" target="L7Nu4bsqdqQI_wppX1Jp-148" edge="1">
          <mxGeometry relative="1" as="geometry" />
        </mxCell>
        <mxCell id="L7Nu4bsqdqQI_wppX1Jp-145" value="FrontEnd (React)" style="swimlane;" parent="1" vertex="1">
          <mxGeometry x="-20" y="290" width="180" height="220" as="geometry" />
        </mxCell>
        <mxCell id="L7Nu4bsqdqQI_wppX1Jp-144" value="Result Page&lt;br&gt;(Result)" style="rounded=0;whiteSpace=wrap;html=1;" parent="L7Nu4bsqdqQI_wppX1Jp-145" vertex="1">
          <mxGeometry x="30" y="140" width="120" height="60" as="geometry" />
        </mxCell>
        <mxCell id="L7Nu4bsqdqQI_wppX1Jp-49" value="Main Page&lt;br&gt;(Search)" style="rounded=0;whiteSpace=wrap;html=1;" parent="L7Nu4bsqdqQI_wppX1Jp-145" vertex="1">
          <mxGeometry x="30" y="40" width="120" height="60" as="geometry" />
        </mxCell>
        <mxCell id="L7Nu4bsqdqQI_wppX1Jp-147" value="" style="edgeStyle=orthogonalEdgeStyle;rounded=0;orthogonalLoop=1;jettySize=auto;html=1;" parent="1" source="L7Nu4bsqdqQI_wppX1Jp-146" target="L7Nu4bsqdqQI_wppX1Jp-49" edge="1">
          <mxGeometry relative="1" as="geometry" />
        </mxCell>
        <mxCell id="L7Nu4bsqdqQI_wppX1Jp-146" value="Start" style="html=1;dashed=0;whiteSpace=wrap;shape=mxgraph.dfd.start" parent="1" vertex="1">
          <mxGeometry x="-120" y="345" width="80" height="30" as="geometry" />
        </mxCell>
        <mxCell id="L7Nu4bsqdqQI_wppX1Jp-148" value="End" style="html=1;dashed=0;whiteSpace=wrap;shape=mxgraph.dfd.start" parent="1" vertex="1">
          <mxGeometry x="-120" y="445" width="80" height="30" as="geometry" />
        </mxCell>
        <mxCell id="L7Nu4bsqdqQI_wppX1Jp-150" value="POST Request" style="text;html=1;strokeColor=none;fillColor=none;align=center;verticalAlign=middle;whiteSpace=wrap;rounded=0;" parent="1" vertex="1">
          <mxGeometry x="596" y="606" width="110" height="30" as="geometry" />
        </mxCell>
        <mxCell id="L7Nu4bsqdqQI_wppX1Jp-153" value="Redis --&amp;gt; JSON.SET" style="text;html=1;strokeColor=none;fillColor=none;align=center;verticalAlign=middle;whiteSpace=wrap;rounded=0;fontSize=9;" parent="1" vertex="1">
          <mxGeometry x="597" y="529" width="110" height="30" as="geometry" />
        </mxCell>
        <mxCell id="L7Nu4bsqdqQI_wppX1Jp-158" value="" style="edgeStyle=orthogonalEdgeStyle;rounded=0;orthogonalLoop=1;jettySize=auto;html=1;exitX=1;exitY=0.25;exitDx=0;exitDy=0;entryX=0;entryY=0.75;entryDx=0;entryDy=0;" parent="1" source="L7Nu4bsqdqQI_wppX1Jp-49" target="L7Nu4bsqdqQI_wppX1Jp-157" edge="1">
          <mxGeometry relative="1" as="geometry">
            <mxPoint x="130" y="345" as="sourcePoint" />
            <mxPoint x="400" y="345" as="targetPoint" />
          </mxGeometry>
        </mxCell>
        <mxCell id="L7Nu4bsqdqQI_wppX1Jp-157" value="&lt;br&gt;Text Input" style="html=1;strokeWidth=2;shape=manualInput;whiteSpace=wrap;rounded=1;size=26;arcSize=11;" parent="1" vertex="1">
          <mxGeometry x="218" y="303" width="76" height="55" as="geometry" />
        </mxCell>
        <mxCell id="L7Nu4bsqdqQI_wppX1Jp-160" value="&lt;br&gt;Text Input" style="html=1;strokeWidth=2;shape=manualInput;whiteSpace=wrap;rounded=1;size=26;arcSize=11;" parent="1" vertex="1">
          <mxGeometry x="220" y="638" width="80" height="52" as="geometry" />
        </mxCell>
      </root>
    </mxGraphModel>
  </diagram>
</mxfile>
